P3
80 45
255
163 200 255
162 199 255
162 199 255
161 199 255
161 199 255
160 198 255
160 198 255
159 198 255
159 197 255
158 197 255
158 197 255
157 197 255
157 196 255
156 196 255
156 196 255
155 195 255
154 195 255
154 195 255
153 194 255
153 194 255
152 194 255
152 193 255
151 193 255
151 193 255
150 192 255
150 192 255
149 192 255
149 191 255
148 191 255
148 191 255
148 191 255
147 190 255
147 190 255
147 190 255
146 190 255
146 190 255
146 190 255
146 190 255
146 190 255
146 190 255
146 190 255
146 190 255
146 190 255
146 190 255
146 190 255
147 190 255
147 190 255
147 190 255
147 191 255
148 191 255
148 191 255
149 191 255
149 192 255
150 192 255
150 192 255
151 193 255
151 193 255
152 193 255
152 194 255
153 194 255
153 194 255
154 195 255
154 195 255
155 195 255
156 196 255
156 196 255
157 196 255
157 196 255
158 197 255
158 197 255
159 197 255
159 198 255
160 198 255
160 198 255
161 199 255
161 199 255
162 199 255
162 200 255
163 200 255
163 200 255
164 200 255
163 200 255
163 200 255
162 200 255
162 199 255
161 199 255
161 199 255
160 198 255
160 198 255
159 198 255
159 197 255
158 197 255
158 197 255
157 197 255
157 196 255
156 196 255
156 196 255
155 195 255
154 195 255
154 195 255
153 194 255
153 194 255
152 194 255
152 193 255
151 193 255
151 193 255
150 192 255
150 192 255
149 192 255
149 192 255
149 191 255
148 191 255
148 191 255
148 191 255
147 191 255
147 191 255
147 190 255
147 190 255
147 190 255
147 190 255
147 190 255
147 190 255
147 190 255
147 190 255
147 191 255
148 191 255
148 191 255
148 191 255
149 191 255
149 192 255
149 192 255
150 192 255
150 192 255
151 193 255
151 193 255
152 193 255
152 194 255
153 194 255
153 194 255
154 195 255
154 195 255
155 195 255
156 196 255
156 196 255
157 196 255
157 197 255
158 197 255
158 197 255
159 197 255
159 198 255
160 198 255
160 198 255
161 199 255
161 199 255
162 199 255
162 200 255
163 200 255
163 200 255
164 200 255
164 201 255
165 201 255
164 201 255
164 200 255
163 200 255
163 200 255
162 200 255
162 199 255
161 199 255
161 199 255
160 198 255
160 198 255
159 198 255
159 198 255
158 197 255
158 197 255
157 197 255
157 196 255
156 196 255
156 196 255
155 195 255
155 195 255
154 195 255
153 194 255
153 194 255
152 194 255
152 193 255
151 193 255
151 193 255
150 192 255
150 192 255
150 192 255
149 192 255
149 192 255
149 191 255
149 191 255
148 191 255
148 191 255
148 191 255
148 191 255
148 191 255
148 191 255
148 191 255
148 191 255
148 191 255
148 191 255
149 191 255
149 192 255
149 192 255
150 192 255
150 192 255
150 192 255
151 193 255
151 193 255
152 193 255
152 194 255
153 194 255
153 194 255
154 195 255
155 195 255
155 195 255
156 196 255
156 196 255
157 196 255
157 197 255
158 197 255
158 197 255
159 198 255
159 198 255
160 198 255
160 198 255
161 199 255
161 199 255
162 199 255
162 200 255
163 200 255
163 200 255
164 200 255
164 201 255
165 201 255
165 201 255
166 202 255
165 201 255
165 201 255
164 201 255
164 201 255
164 200 255
163 200 255
163 200 255
162 199 255
162 199 255
161 199 255
161 199 255
160 198 255
160 198 255
159 198 255
159 197 255
158 197 255
157 197 255
157 196 255
156 196 255
156 196 255
155 195 255
155 195 255
154 195 255
154 194 255
153 194 255
153 194 255
152 193 255
152 193 255
151 193 255
151 193 255
151 193 255
150 192 255
150 192 255
150 192 255
149 192 255
149 192 255
149 192 255
149 192 255
149 192 255
149 192 255
149 192 255
149 192 255
149 192 255
150 192 255
150 192 255
150 192 255
151 193 255
151 193 255
151 193 255
152 193 255
152 193 255
153 194 255
153 194 255
154 194 255
154 195 255
155 195 255
155 195 255
156 196 255
156 196 255
157 196 255
157 197 255
158 197 255
158 197 255
159 198 255
160 198 255
160 198 255
161 199 255
161 199 255
162 199 255
162 199 255
163 200 255
163 200 255
164 200 255
164 201 255
164 201 255
165 201 255
165 201 255
166 202 255
166 202 255
167 202 255
166 202 255
166 202 255
166 202 255
165 201 255
165 201 255
164 201 255
164 200 255
163 200 255
163 200 255
162 200 255
162 199 255
161 199 255
161 199 255
160 198 255
160 198 255
159 198 255
159 197 255
158 197 255
158 197 255
157 196 255
157 196 255
156 196 255
155 195 255
155 195 255
154 195 255
154 194 255
153 194 255
153 194 255
153 194 255
152 193 255
152 193 255
152 193 255
151 193 255
151 193 255
151 193 255
151 193 255
150 192 255
150 192 255
150 192 255
150 192 255
150 192 255
151 193 255
151 193 255
151 193 255
151 193 255
151 193 255
152 193 255
152 193 255
153 194 255
153 194 255
153 194 255
154 195 255
154 195 255
155 195 255
155 195 255
156 196 255
156 196 255
157 196 255
158 197 255
158 197 255
159 197 255
159 198 255
160 198 255
160 198 255
161 199 255
161 199 255
162 199 255
162 200 255
163 200 255
163 200 255
164 201 255
164 201 255
165 201 255
165 201 255
166 202 255
166 202 255
166 202 255
167 202 255
167 203 255
168 203 255
168 203 255
167 203 255
167 202 255
166 202 255
166 202 255
166 202 255
165 201 255
165 201 255
164 201 255
164 200 255
163 200 255
163 200 255
162 199 255
162 199 255
161 199 255
161 199 255
160 198 255
159 198 255
159 198 255
158 197 255
158 197 255
157 197 255
157 196 255
156 196 255
156 196 255
155 195 255
155 195 255
154 195 255
154 194 255
154 194 255
153 194 255
153 194 255
153 194 255
152 194 255
152 193 255
152 193 255
152 193 255
152 193 255
152 193 255
152 193 255
152 193 255
152 193 255
152 193 255
152 194 255
152 194 255
153 194 255
153 194 255
154 194 255
154 194 255
154 195 255
155 195 255
155 195 255
156 196 255
156 196 255
157 196 255
157 197 255
158 197 255
158 197 255
159 198 255
159 198 255
160 198 255
161 199 255
161 199 255
162 199 255
162 199 255
163 200 255
163 200 255
164 200 255
164 201 255
165 201 255
165 201 255
165 201 255
166 202 255
166 202 255
167 202 255
167 203 255
168 203 255
168 203 255
168 203 255
169 204 255
169 203 255
169 203 255
168 203 255
168 203 255
167 203 255
167 202 255
166 202 255
166 202 255
165 201 255
165 201 255
164 201 255
164 201 255
163 200 255
163 200 255
162 200 255
162 199 255
161 199 255
161 199 255
160 198 255
160 198 255
159 198 255
159 197 255
158 197 255
158 197 255
157 197 255
157 196 255
156 196 255
156 196 255
155 195 255
155 195 255
155 195 255
154 195 255
154 195 255
154 194 255
154 194 255
153 194 255
153 194 255
153 194 255
153 194 255
153 194 255
153 194 255
153 194 255
154 194 255
154 194 255
154 195 255
154 195 255
155 195 255
155 195 255
155 195 255
156 196 255
156 196 255
157 196 255
157 197 255
158 197 255
158 197 255
159 197 255
159 198 255
160 198 255
160 198 255
161 199 255
161 199 255
162 199 255
162 200 255
163 200 255
163 200 255
164 201 255
164 201 255
165 201 255
165 201 255
166 202 255
166 202 255
167 202 255
167 203 255
168 203 255
168 203 255
168 203 255
169 203 255
169 204 255
170 204 255
170 204 255
170 204 255
170 204 255
169 204 255
169 204 255
168 203 255
168 203 255
168 203 255
167 203 255
167 202 255
166 202 255
166 202 255
165 201 255
165 201 255
164 201 255
164 201 255
163 200 255
163 200 255
163 200 255
162 199 255
161 199 255
161 199 255
160 198 255
160 198 255
159 198 255
159 197 255
158 197 255
158 197 255
157 197 255
157 196 255
157 196 255
156 196 255
156 196 255
155 195 255
155 195 255
155 195 255
155 195 255
155 195 255
155 195 255
155 195 255
155 195 255
155 195 255
155 195 255
155 195 255
155 195 255
156 196 255
156 196 255
156 196 255
156 196 255
157 196 255
157 197 255
158 197 255
158 197 255
159 197 255
159 198 255
160 198 255
160 198 255
161 199 255
161 199 255
162 199 255
162 200 255
163 200 255
163 200 255
164 201 255
164 201 255
165 201 255
165 201 255
166 202 255
166 202 255
167 202 255
167 202 255
168 203 255
168 203 255
168 203 255
169 204 255
169 204 255
170 204 255
170 204 255
170 204 255
171 205 255
172 205 255
171 205 255
171 205 255
171 205 255
170 204 255
170 204 255
169 204 255
169 204 255
169 203 255
168 203 255
168 203 255
167 203 255
167 202 255
166 202 255
166 202 255
165 201 255
165 201 255
164 201 255
164 200 255
163 200 255
163 200 255
162 200 255
162 199 255
161 199 255
161 199 255
160 198 255
160 198 255
159 198 255
159 198 255
159 197 255
158 197 255
158 197 255
157 197 255
157 197 255
157 196 255
157 196 255
157 196 255
156 196 255
156 196 255
156 196 255
156 196 255
156 196 255
156 196 255
157 196 255
157 196 255
157 197 255
158 197 255
158 197 255
158 197 255
159 197 255
159 198 255
159 198 255
160 198 255
160 198 255
161 199 255
161 199 255
162 199 255
162 200 255
163 200 255
163 200 255
164 201 255
164 201 255
165 201 255
165 201 255
166 202 255
166 202 255
167 202 255
167 203 255
168 203 255
168 203 255
169 203 255
169 204 255
169 204 255
170 204 255
170 204 255
171 205 255
171 205 255
171 205 255
172 205 255
172 205 255
173 206 255
173 206 255
172 206 255
172 205 255
171 205 255
171 205 255
171 205 255
170 204 255
170 204 255
170 204 255
169 204 255
169 203 255
168 203 255
168 203 255
167 203 255
167 202 255
166 202 255
166 202 255
165 201 255
165 201 255
164 201 255
164 201 255
163 200 255
163 200 255
163 200 255
162 199 255
161 199 255
161 199 255
161 199 255
160 198 255
160 198 255
159 198 255
159 198 255
159 198 255
159 197 255
158 197 255
158 197 255
158 197 255
158 197 255
158 197 255
158 197 255
158 197 255
158 197 255
158 197 255
159 197 255
159 198 255
159 198 255
160 198 255
160 198 255
160 198 255
161 199 255
161 199 255
162 199 255
162 199 255
163 200 255
163 200 255
163 200 255
164 201 255
164 201 255
165 201 255
165 201 255
166 202 255
166 202 255
167 202 255
167 203 255
168 203 255
168 203 255
169 203 255
169 204 255
170 204 255
170 204 255
170 204 255
171 205 255
171 205 255
171 205 255
172 205 255
172 206 255
173 206 255
173 206 255
173 206 255
174 207 255
174 207 255
174 206 255
173 206 255
173 206 255
173 206 255
172 205 255
172 205 255
171 205 255
171 205 255
171 205 255
170 204 255
170 204 255
169 204 255
169 204 255
168 203 255
168 203 255
167 203 255
167 202 255
167 202 255
166 202 255
166 202 255
165 201 255
165 201 255
164 201 255
164 200 255
163 200 255
163 200 255
162 200 255
162 199 255
162 199 255
161 199 255
161 199 255
161 199 255
160 198 255
155 192 247
110 137 177
83 103 134
76 95 124
56 70 91
68 86 111
76 94 123
111 137 177
148 184 236
161 199 255
161 199 255
161 199 255
161 199 255
162 199 255
162 199 255
163 200 255
163 200 255
163 200 255
164 200 255
164 201 255
165 201 255
165 201 255
166 202 255
166 202 255
167 202 255
167 202 255
168 203 255
168 203 255
168 203 255
169 204 255
169 204 255
170 204 255
170 204 255
171 205 255
171 205 255
171 205 255
172 205 255
172 206 255
172 206 255
173 206 255
173 206 255
173 206 255
174 207 255
174 207 255
174 207 255
176 208 255
175 207 255
175 207 255
175 207 255
174 207 255
174 207 255
174 206 255
173 206 255
173 206 255
173 206 255
172 205 255
172 205 255
171 205 255
171 205 255
170 204 255
170 204 255
170 204 255
169 204 255
169 203 255
168 203 255
168 203 255
167 203 255
167 202 255
167 202 255
166 202 255
166 202 255
165 201 255
165 201 255
164 201 255
164 201 255
164 200 255
163 200 255
163 200 255
133 164 209
70 87 112
23 29 39
19 24 31
27 33 43
12 16 22
15 19 25
14 18 23
15 19 26
20 26 33
17 22 29
52 64 83
123 152 194
163 200 255
163 200 255
164 200 255
164 201 255
164 201 255
165 201 255
165 201 255
166 202 255
166 202 255
167 202 255
167 202 255
167 203 255
168 203 255
168 203 255
169 203 255
169 204 255
170 204 255
170 204 255
171 205 255
171 205 255
171 205 255
172 205 255
172 205 255
173 206 255
173 206 255
173 206 255
174 206 255
174 207 255
174 207 255
175 207 255
175 207 255
175 207 255
175 207 255
176 208 255
177 208 255
176 208 255
176 208 255
176 208 255
176 208 255
175 207 255
175 207 255
175 207 255
174 207 255
174 207 255
174 206 255
173 206 255
173 206 255
173 206 255
172 206 255
172 205 255
171 205 255
171 205 255
171 205 255
170 204 255
170 204 255
169 204 255
169 203 255
168 203 255
168 203 255
168 203 255
167 203 255
167 202 255
166 202 255
166 202 255
166 202 255
157 191 243
67 83 106
14 18 24
20 26 34
15 18 23
25 30 39
25 31 40
16 20 26
17 21 28
13 16 21
22 27 35
20 25 32
17 21 28
20 25 33
17 21 27
77 94 120
161 196 249
166 202 255
166 202 255
166 202 255
167 202 255
167 202 255
167 203 255
168 203 255
168 203 255
169 203 255
169 204 255
170 204 255
170 204 255
170 204 255
171 205 255
171 205 255
172 205 255
172 205 255
173 206 255
173 206 255
173 206 255
174 206 255
174 207 255
174 207 255
175 207 255
175 207 255
175 207 255
176 208 255
176 208 255
176 208 255
177 208 255
177 208 255
177 208 255
178 209 255
178 209 255
178 209 255
177 209 255
177 208 255
177 208 255
177 208 255
176 208 255
176 208 255
176 208 255
175 207 255
175 207 255
175 207 255
174 207 255
174 206 255
173 206 255
173 206 255
173 206 255
172 206 255
172 205 255
172 205 255
171 205 255
171 205 255
170 204 255
170 204 255
170 204 255
169 204 255
169 203 255
168 203 255
168 203 255
148 179 226
40 49 64
13 17 23
18 23 29
14 17 22
15 18 23
15 19 24
19 24 31
20 25 33
17 21 27
19 24 30
15 19 25
20 25 33
19 23 30
14 17 23
11 14 18
14 18 23
38 47 60
147 178 225
168 203 255
168 203 255
169 203 255
169 204 255
170 204 255
170 204 255
170 204 255
171 205 255
171 205 255
172 205 255
172 205 255
172 206 255
173 206 255
173 206 255
173 206 255
174 207 255
174 207 255
175 207 255
175 207 255
175 207 255
176 208 255
176 208 255
176 208 255
176 208 255
177 208 255
177 208 255
177 209 255
178 209 255
178 209 255
178 209 255
178 209 255
179 210 255
179 210 255
179 210 255
179 209 255
179 209 255
178 209 255
178 209 255
178 209 255
177 209 255
177 208 255
177 208 255
177 208 255
176 208 255
176 208 255
176 208 255
175 207 255
175 207 255
175 207 255
174 207 255
174 206 255
173 206 255
173 206 255
173 206 255
172 206 255
172 205 255
172 205 255
171 205 255
171 205 255
171 205 255
154 185 231
43 52 67
18 22 28
12 15 19
16 20 25
11 14 18
17 21 27
18 22 29
20 25 32
21 26 33
17 20 25
21 26 35
19 24 31
23 29 38
16 20 25
21 26 33
28 34 43
14 16 21
13 16 21
39 48 61
154 185 231
171 205 255
171 205 255
171 205 255
172 205 255
172 205 255
172 206 255
173 206 255
173 206 255
173 206 255
174 206 255
174 207 255
174 207 255
175 207 255
175 207 255
175 207 255
176 208 255
176 208 255
177 208 255
177 208 255
177 208 255
178 209 255
178 209 255
178 209 255
178 209 255
178 209 255
179 209 255
179 210 255
179 210 255
179 210 255
180 210 255
181 211 255
181 211 255
180 210 255
180 210 255
180 210 255
180 210 255
179 210 255
179 210 255
179 210 255
179 209 255
178 209 255
178 209 255
178 209 255
178 209 255
177 209 255
177 208 255
177 208 255
176 208 255
176 208 255
176 208 255
176 208 255
175 207 255
175 207 255
174 207 255
174 207 255
174 206 255
173 206 255
173 206 255
169 202 250
46 55 70
15 19 24
17 21 27
11 13 17
19 24 30
16 20 26
15 18 23
27 33 41
24 29 37
20 24 31
18 22 28
20 24 29
21 25 31
25 31 38
19 23 30
21 26 34
14 17 22
12 14 18
15 19 23
19 24 31
47 57 72
173 206 255
173 206 255
174 206 255
174 206 255
174 207 255
174 207 255
175 207 255
175 207 255
175 207 255
176 208 255
176 208 255
176 208 255
177 208 255
177 208 255
177 209 255
178 209 255
178 209 255
178 209 255
179 209 255
179 209 255
179 210 255
179 210 255
180 210 255
180 210 255
180 210 255
180 210 255
180 210 255
181 211 255
181 211 255
181 211 255
182 212 255
182 211 255
182 211 255
182 211 255
181 211 255
181 211 255
181 211 255
181 211 255
181 211 255
181 211 255
180 210 255
180 210 255
180 210 255
179 210 255
179 210 255
179 210 255
179 209 255
178 209 255
178 209 255
178 209 255
177 209 255
177 209 255
177 208 255
177 208 255
176 208 255
176 208 255
176 208 255
175 207 255
90 107 133
11 14 18
19 23 29
11 14 18
20 24 30
17 20 26
22 27 34
19 23 30
19 23 29
20 25 31
22 27 35
23 28 36
21 27 34
20 25 32
19 24 31
23 29 36
18 22 29
17 20 25
21 26 33
16 20 25
11 13 17
13 16 20
97 115 143
175 207 255
176 208 255
176 208 255
176 208 255
177 208 255
177 208 255
177 209 255
178 209 255
178 209 255
178 209 255
178 209 255
179 209 255
179 210 255
179 210 255
179 210 255
180 210 255
180 210 255
180 210 255
180 210 255
181 211 255
181 211 255
181 211 255
181 211 255
182 211 255
182 211 255
182 211 255
182 211 255
182 211 255
182 212 255
184 212 255
184 212 255
183 212 255
183 212 255
183 212 255
183 212 255
183 212 255
182 212 255
182 212 255
182 211 255
182 211 255
182 211 255
181 211 255
181 211 255
181 211 255
181 211 255
181 211 255
180 210 255
180 210 255
180 210 255
179 210 255
179 210 255
179 210 255
179 209 255
179 209 255
178 209 255
178 209 255
168 197 241
17 20 25
13 16 21
14 17 21
17 21 26
16 20 26
17 21 28
14 17 22
22 26 33
24 29 37
23 28 35
24 30 38
25 29 36
27 33 43
24 29 38
29 35 44
21 26 33
20 25 32
22 27 35
18 21 27
14 17 21
19 23 30
13 17 21
20 24 30
166 195 239
178 209 255
178 209 255
179 209 255
179 209 255
179 210 255
179 210 255
180 210 255
180 210 255
180 210 255
180 210 255
181 211 255
181 211 255
181 211 255
181 211 255
181 211 255
182 211 255
182 211 255
182 211 255
182 212 255
183 212 255
183 212 255
183 212 255
183 212 255
183 212 255
183 212 255
183 212 255
184 212 255
184 212 255
185 213 255
185 213 255
185 213 255
185 213 255
185 213 255
184 213 255
184 213 255
184 213 255
184 213 255
184 212 255
184 212 255
183 212 255
183 212 255
183 212 255
183 212 255
183 212 255
183 212 255
182 212 255
182 211 255
182 211 255
182 211 255
181 211 255
181 211 255
181 211 255
181 211 255
181 211 255
180 210 255
96 113 138
13 16 20
12 14 18
16 19 24
19 23 30
17 21 26
19 24 30
22 27 33
18 21 27
21 26 33
19 22 28
18 23 29
15 19 23
25 31 39
20 25 31
19 23 29
16 20 26
17 20 26
18 22 28
19 22 28
18 21 27
19 23 28
17 21 26
17 20 25
94 111 135
180 210 255
181 211 255
181 211 255
181 211 255
181 211 255
181 211 255
182 211 255
182 211 255
182 211 255
182 212 255
183 212 255
183 212 255
183 212 255
183 212 255
183 212 255
184 212 255
184 212 255
184 212 255
184 213 255
184 213 255
184 213 255
184 213 255
184 213 255
185 213 255
185 213 255
185 213 255
185 213 255
185 213 255
186 214 255
186 214 255
186 214 255
186 214 255
186 214 255
186 214 255
186 214 255
186 214 255
186 214 255
185 213 255
185 213 255
185 213 255
185 213 255
185 213 255
185 213 255
185 213 255
185 213 255
184 213 255
184 213 255
184 213 255
184 213 255
184 212 255
184 212 255
183 212 255
183 212 255
183 212 255
183 212 255
43 50 61
13 16 21
12 15 19
14 17 22
13 16 20
18 22 27
19 23 30
24 29 37
21 25 32
25 30 39
20 25 31
23 28 36
22 27 35
19 23 29
21 25 32
19 23 29
17 21 26
23 28 35
20 24 31
17 21 26
12 15 19
20 25 31
17 21 26
12 15 20
43 51 64
183 212 255
183 212 255
183 212 255
183 212 255
183 212 255
184 212 255
184 213 255
184 213 255
184 213 255
184 213 255
184 213 255
185 213 255
185 213 255
185 213 255
185 213 255
185 213 255
185 213 255
185 213 255
186 214 255
186 214 255
186 214 255
186 214 255
186 214 255
186 214 255
186 214 255
186 214 255
186 214 255
187 214 255
188 215 255
188 215 255
188 215 255
188 215 255
188 215 255
188 215 255
187 215 255
187 215 255
187 215 255
187 215 255
187 214 255
187 214 255
187 214 255
187 214 255
187 214 255
187 214 255
186 214 255
186 214 255
186 214 255
186 214 255
186 214 255
186 214 255
186 214 255
186 214 255
185 213 255
185 213 255
171 197 237
16 20 24
12 15 19
12 14 18
21 25 33
14 17 22
25 31 38
14 18 22
17 20 25
21 25 32
20 25 32
23 28 35
24 29 35
14 18 23
23 28 36
27 32 40
16 19 24
19 23 28
17 21 26
23 28 35
15 18 24
21 25 32
17 21 27
13 16 20
17 20 25
23 27 33
171 197 236
185 213 255
185 213 255
186 214 255
186 214 255
186 214 255
186 214 255
186 214 255
186 214 255
186 214 255
187 214 255
187 214 255
187 214 255
187 214 255
187 214 255
187 214 255
187 214 255
187 215 255
187 215 255
187 215 255
187 215 255
188 215 255
188 215 255
188 215 255
188 215 255
188 215 255
188 215 255
188 215 255
189 216 255
189 216 255
189 216 255
189 216 255
189 216 255
189 216 255
189 216 255
189 216 255
189 216 255
189 216 255
189 215 255
189 215 255
189 215 255
189 215 255
189 215 255
188 215 255
189 215 255
188 215 255
188 215 255
188 215 255
188 215 255
188 215 255
188 215 255
188 215 255
188 215 255
188 215 255
136 156 186
13 15 19
10 12 15
16 19 24
14 17 22
13 16 20
20 24 30
18 21 27
20 23 29
22 27 34
22 26 33
24 29 37
20 24 30
13 16 21
22 27 35
23 27 34
25 30 38
20 24 30
21 25 31
18 22 28
20 24 30
15 19 23
18 22 28
16 19 24
14 18 22
15 18 23
157 180 214
188 215 255
188 215 255
188 215 255
188 215 255
188 215 255
188 215 255
188 215 255
188 215 255
188 215 255
188 215 255
189 215 255
189 215 255
189 215 255
189 215 255
189 215 255
189 216 255
189 216 255
189 216 255
189 216 255
189 216 255
189 216 255
189 216 255
189 216 255
189 216 255
189 216 255
189 216 255
189 216 255
191 217 255
191 217 255
191 217 255
191 217 255
191 217 255
191 217 255
191 217 255
191 217 255
191 217 255
191 217 255
191 217 255
191 217 255
191 217 255
191 217 255
191 217 255
190 216 255
190 216 255
191 217 255
190 216 255
190 216 255
190 216 255
190 216 255
190 216 255
190 216 255
190 216 255
190 216 255
133 151 179
10 12 16
7 9 11
8 10 12
12 14 18
15 19 23
15 18 23
20 24 29
16 19 23
21 25 32
20 24 31
19 23 28
25 30 37
17 20 26
17 20 25
15 18 23
22 27 34
13 16 21
13 17 22
15 18 23
16 19 24
13 15 20
14 17 21
15 18 23
12 14 18
9 11 14
138 158 186
190 216 255
190 216 255
190 216 255
190 216 255
190 216 255
190 216 255
191 217 255
190 216 255
190 216 255
190 216 255
191 217 255
190 216 255
190 216 255
191 217 255
191 217 255
191 217 255
191 217 255
191 217 255
191 217 255
191 217 255
191 217 255
191 217 255
191 217 255
191 217 255
191 217 255
191 217 255
191 217 255
192 217 255
192 218 255
192 218 255
192 218 255
192 218 255
192 218 255
192 218 255
192 218 255
192 218 255
192 218 255
192 218 255
192 218 255
192 218 255
192 218 255
192 218 255
193 218 255
192 218 255
192 218 255
193 218 255
193 218 255
193 218 255
193 218 255
193 218 255
193 218 255
193 218 255
193 218 255
128 145 171
11 13 16
9 12 15
12 14 18
11 13 16
15 18 23
14 16 20
13 16 21
20 24 30
16 20 25
21 25 31
14 17 22
18 22 26
15 18 22
18 21 27
15 18 23
25 30 38
20 24 30
14 17 22
15 18 23
22 26 33
12 15 19
18 22 27
12 15 18
12 15 19
17 21 26
141 159 187
193 218 255
193 218 255
193 218 255
193 218 255
193 218 255
193 218 255
193 218 255
193 218 255
192 218 255
192 218 255
193 218 255
192 218 255
193 218 255
192 218 255
192 218 255
192 218 255
192 218 255
192 218 255
192 218 255
192 218 255
192 218 255
192 218 255
192 218 255
192 218 255
192 218 255
192 218 255
192 218 255
194 218 255
194 218 255
194 218 255
194 218 255
194 219 255
194 218 255
194 219 255
194 219 255
194 219 255
194 219 255
194 219 255
194 219 255
194 219 255
194 219 255
194 219 255
195 219 255
194 219 255
195 219 255
195 219 255
195 219 255
195 219 255
195 219 255
195 219 255
195 219 255
195 219 255
195 219 255
158 177 207
13 15 19
10 12 16
7 9 12
17 21 25
16 20 25
15 18 22
15 18 22
16 19 24
15 18 22
20 24 31
19 23 29
15 18 23
17 21 26
18 22 28
19 22 28
22 26 32
12 14 18
20 24 30
19 23 29
13 15 19
16 19 24
14 17 22
8 10 13
11 14 17
15 18 23
157 177 207
195 219 255
195 219 255
195 219 255
195 219 255
195 219 255
195 219 255
195 219 255
195 219 255
195 219 255
195 219 255
194 219 255
194 219 255
194 219 255
194 219 255
194 219 255
194 219 255
194 219 255
194 219 255
194 219 255
194 219 255
194 219 255
194 218 255
194 219 255
194 218 255
194 218 255
194 218 255
194 218 255
195 219 255
195 219 255
195 219 255
195 219 255
195 219 255
195 219 255
196 220 255
196 220 255
196 220 255
196 220 255
196 220 255
196 220 255
196 220 255
196 220 255
196 220 255
196 220 255
183 206 239
180 202 235
177 199 231
151 170 197
155 174 203
127 143 167
113 128 150
97 110 130
101 115 135
83 95 113
64 73 86
7 9 11
13 15 20
9 11 14
16 19 24
17 20 24
17 21 26
19 23 29
19 23 29
21 24 30
14 17 22
16 19 23
20 24 30
14 17 21
15 18 23
21 25 31
16 19 23
10 13 17
11 13 16
17 20 24
12 15 19
11 13 16
13 16 20
11 14 17
9 11 13
14 17 21
68 78 93
88 101 119
106 121 142
90 103 121
114 129 152
124 140 163
142 161 188
150 169 197
164 184 215
178 200 233
191 214 249
196 220 255
196 220 255
196 220 255
196 220 255
196 220 255
196 220 255
196 220 255
196 220 255
196 220 255
196 220 255
196 220 255
195 219 255
195 219 255
195 219 255
195 219 255
195 219 255
195 219 255
197 220 255
197 220 255
197 220 255
197 220 255
192 215 249
155 174 203
133 150 176
136 153 180
119 134 156
99 112 132
103 116 136
64 73 87
61 71 85
53 62 75
25 31 39
18 22 29
9 12 16
11 15 20
14 19 25
12 16 22
14 18 25
11 14 19
12 16 21
18 23 32
10 13 18
13 17 24
14 18 24
9 11 15
7 9 11
14 17 21
13 16 21
12 15 18
11 14 17
16 19 24
14 16 20
13 16 20
16 19 24
12 14 18
12 14 18
15 19 24
19 23 28
13 15 19
15 17 21
13 15 19
11 13 16
13 16 20
6 7 9
12 15 19
14 17 21
11 13 17
7 8 11
9 11 13
14 19 26
13 17 23
16 21 29
14 18 25
11 15 21
16 21 29
12 16 22
19 25 35
13 17 24
11 15 20
11 15 20
21 26 34
30 36 45
50 58 70
52 59 71
90 103 122
80 91 108
101 115 135
115 131 154
131 147 173
144 162 190
172 193 224
190 213 247
190 212 247
197 220 255
197 220 255
197 220 255
196 220 255
59 70 85
56 65 78
34 42 54
15 19 25
10 13 18
14 18 25
14 18 25
11 14 19
17 23 32
13 18 24
23 30 41
11 15 21
15 20 28
12 16 22
12 15 21
13 18 24
18 24 33
12 17 23
15 19 26
16 21 29
18 25 34
13 18 25
14 19 26
12 16 22
18 25 34
8 11 15
19 25 34
4 5 6
8 10 13
9 11 14
11 14 18
11 14 17
18 21 26
14 17 21
9 11 14
12 15 18
18 22 27
10 12 16
15 18 23
14 17 22
17 20 26
15 18 23
7 9 11
11 13 16
13 16 20
7 9 11
14 17 21
13 15 19
10 12 15
8 10 13
8 10 13
11 14 18
9 12 17
16 21 29
13 17 24
13 17 23
13 18 25
9 13 18
13 18 25
15 21 28
19 25 33
11 15 20
16 21 29
7 9 13
14 18 24
10 13 19
14 19 25
15 20 28
13 17 24
12 15 21
19 25 35
18 24 33
9 12 17
17 22 30
15 21 29
14 18 24
39 46 57
38 44 54
55 63 74
70 80 96
13 18 24
13 17 24
15 19 26
12 15 21
10 14 20
13 18 24
12 16 22
11 14 19
15 19 26
11 15 21
11 14 20
10 14 19
14 18 25
13 17 24
11 14 20
10 13 17
18 24 33
10 13 18
14 18 25
12 16 23
15 20 27
15 21 28
11 15 21
14 18 25
15 19 26
11 14 20
10 14 19
12 16 22
6 8 11
10 12 15
8 9 12
11 12 15
10 12 16
11 13 16
9 11 14
8 9 12
12 14 17
11 14 17
9 11 14
13 16 20
11 14 17
16 19 23
11 13 16
12 14 17
8 9 11
12 14 18
8 10 13
14 17 21
3 4 5
7 8 10
10 12 15
10 13 17
14 19 26
11 15 21
18 24 32
9 12 17
8 11 14
14 18 25
17 22 30
12 16 22
14 18 25
11 14 20
14 19 26
9 12 17
11 14 20
12 16 21
16 22 30
11 16 22
16 21 29
12 15 21
15 20 27
14 19 26
16 21 29
19 25 35
15 20 27
13 17 23
18 24 33
14 19 26
14 19 25
16 21 29
13 17 24
15 20 27
11 15 20
14 19 26
11 15 21
17 22 30
16 22 30
13 18 24
14 18 25
15 19 26
13 18 25
20 27 36
16 22 30
14 19 26
15 19 26
14 19 26
13 18 24
16 22 30
8 10 14
12 15 21
19 25 35
13 18 25
9 12 17
14 19 26
13 18 24
12 16 23
14 19 26
15 20 28
13 17 22
7 8 10
7 8 10
10 12 15
11 14 17
7 8 10
9 11 13
11 13 16
12 14 17
11 13 17
11 14 17
12 15 18
13 15 19
13 16 20
7 9 11
13 15 19
6 8 10
7 8 10
9 11 14
6 8 10
5 6 7
7 8 10
8 10 13
14 19 26
10 14 19
14 18 25
13 17 23
10 13 17
10 13 18
11 15 21
16 21 29
19 25 34
13 17 24
14 18 25
10 13 18
11 14 19
17 22 30
13 18 24
12 16 21
12 16 23
10 13 18
14 19 26
16 21 29
10 13 18
13 16 22
7 10 14
9 12 17
18 23 32
13 17 23
15 20 27
12 15 21
12 16 22
14 18 25
16 21 28
13 17 23
13 17 24
12 16 21
13 17 23
17 23 32
13 17 24
14 19 26
12 15 21
15 20 27
16 21 29
12 15 21
16 21 29
15 20 27
18 24 33
15 19 27
12 15 21
12 16 21
19 25 33
18 24 32
15 20 27
16 21 28
14 19 27
10 13 18
9 12 16
14 19 26
11 14 20
12 16 22
5 6 8
4 5 7
3 4 5
9 10 13
10 12 15
5 6 8
5 6 8
12 15 19
8 10 13
6 8 10
9 10 13
10 12 15
11 13 16
8 10 13
14 17 21
8 10 12
6 7 9
12 15 18
11 13 16
6 7 9
9 12 15
14 18 25
11 15 21
11 15 21
11 14 19
10 13 17
10 13 17
9 12 17
14 18 25
16 22 30
13 17 22
14 19 25
6 8 11
14 19 26
11 15 20
12 16 22
12 15 21
9 12 17
17 22 30
14 18 25
15 20 27
12 16 21
14 18 25
16 21 29
14 18 24
15 19 27
18 24 33
12 16 22
12 17 23
16 21 29
15 19 27
16 21 29
10 13 18
16 20 27
11 15 21
11 14 19
13 18 24
9 12 17
12 16 22
19 26 35
14 18 25
15 19 26
14 19 26
9 12 16
13 17 24
11 15 21
19 25 34
10 13 18
9 11 16
20 27 37
10 14 19
16 21 28
12 17 23
17 22 30
14 18 25
15 20 27
17 22 30
13 17 23
9 13 18
9 12 17
9 12 17
8 10 12
5 6 8
3 4 6
6 7 9
5 6 8
6 7 9
5 6 8
7 9 11
12 14 18
12 14 17
8 10 13
3 4 6
7 8 10
6 7 9
10 12 15
7 8 10
4 5 7
7 8 10
9 11 13
15 20 26
11 15 21
16 22 30
13 17 23
10 13 18
12 16 22
10 14 19
20 26 36
13 18 25
14 20 27
13 18 25
16 21 28
12 16 22
14 18 25
12 17 23
12 16 23
11 15 20
11 14 20
13 17 23
7 10 13
12 16 21
13 17 23
12 17 23
10 13 18
12 17 23
13 17 23
12 15 21
14 18 25
14 19 26
13 17 24
13 18 24
13 18 24
17 23 31
17 22 31
11 15 20
15 19 26
12 15 21
15 20 27
11 15 20
11 15 21
11 14 20
10 13 18
17 22 31
19 25 34
13 18 24
9 12 17
13 17 24
14 19 26
13 17 24
10 13 19
10 13 18
16 21 29
10 14 19
9 13 18
9 12 16
9 13 17
14 18 26
14 18 26
9 12 17
9 12 17
7 9 13
9 11 15
10 12 15
2 3 4
6 8 10
2 3 3
4 5 7
5 6 8
7 8 11
9 10 13
4 4 6
4 5 7
6 8 10
7 9 11
5 6 8
9 11 14
6 7 8
7 8 10
7 9 11
9 12 16
8 10 14
11 14 19
10 14 19
13 17 24
16 20 28
11 14 19
19 24 33
14 19 25
13 17 24
10 14 19
16 22 30
15 19 26
13 17 23
10 14 19
14 18 24
13 17 23
9 12 17
12 16 21
12 16 22
15 20 27
15 20 27
17 23 31
16 20 28
13 17 23
12 17 23
17 23 32
16 21 29
12 16 22
12 16 22
15 20 27
20 26 35
15 19 27
14 18 25
11 15 21
13 18 25
7 10 14
12 16 23
10 13 18
17 22 31
12 16 22
10 13 18
14 19 26
11 15 21
16 20 28
16 21 29
16 22 30
13 17 24
9 12 17
13 17 24
12 16 22
11 15 21
13 18 24
13 18 24
13 17 24
9 13 18
10 14 20
16 21 29
5 7 9
11 14 20
9 13 18
9 12 16
9 12 16
8 10 14
3 4 5
6 7 9
4 5 7
8 9 11
7 9 11
1 2 2
7 8 10
6 8 10
6 7 9
5 6 8
2 2 3
5 6 7
8 9 12
3 3 5
4 4 6
8 11 15
8 11 14
11 15 20
8 11 16
12 16 22
10 13 18
10 14 20
10 14 19
7 10 13
11 15 21
14 19 26
10 13 18
11 15 21
10 13 18
12 16 22
13 17 23
14 18 25
13 18 24
12 16 22
12 15 21
8 11 15
12 16 21
13 17 24
12 15 21
15 20 28
16 22 30
14 18 25
14 18 25
15 20 27
19 25 34
11 15 20
12 16 22
17 22 30
11 15 21
10 13 17
13 18 25
13 18 24
14 18 26
12 15 20
13 17 24
8 11 15
8 11 15
14 18 25
10 13 18
6 9 12
8 11 15
9 12 17
9 12 16
12 16 23
11 14 19
9 13 18
12 17 23
12 16 23
11 15 20
8 10 14
9 12 16
13 16 22
12 16 22
10 14 19
9 11 16
5 7 10
4 6 8
6 8 12
9 12 16
2 2 3
4 5 7
3 4 6
3 4 5
3 3 4
6 7 9
5 6 7
5 6 7
4 5 7
2 3 4
2 3 4
4 5 6
4 5 6
3 3 4
2 2 3
3 4 5
4 5 7
7 10 13
8 11 15
10 13 18
11 15 20
15 20 27
10 13 19
8 11 15
14 19 26
16 22 30
15 20 28
12 15 21
10 14 19
14 18 25
12 16 21
14 19 26
9 11 15
13 18 24
9 12 17
15 20 27
10 14 19
11 15 20
14 18 24
14 18 25
13 18 24
11 15 21
13 18 25
14 18 25
13 17 23
12 16 22
17 22 30
11 15 20
17 22 31
14 19 27
11 15 21
12 15 21
9 13 17
13 17 24
13 17 23
11 15 20
12 16 22
13 17 24
13 17 24
11 15 21
10 13 18
12 17 23
18 24 33
15 20 28
9 12 16
12 15 21
15 20 27
14 18 25
7 10 13
8 10 14
6 8 11
13 17 23
13 17 23
13 17 24
12 16 22
8 10 14
8 10 13
9 11 16
4 6 8
6 8 11
7 9 12
5 6 8
1 2 2
2 2 3
1 2 2
0 0 0
5 6 7
0 0 1
1 2 3
0 1 1
0 1 1
2 2 3
0 0 0
1 2 2
6 8 11
6 8 11
6 8 11
7 10 13
7 9 12
6 9 12
8 11 15
11 14 20
8 11 15
16 21 29
6 8 11
11 14 19
13 18 24
9 12 17
16 21 29
14 19 26
11 15 20
8 11 15
17 23 31
18 23 32
12 16 22
14 18 25
12 16 21
15 20 27
9 12 17
16 21 29
14 18 24
12 16 23
17 22 31
16 22 30
15 19 26
18 24 33
11 15 21
12 16 21
13 17 23
15 20 27
14 19 26
13 18 24
16 22 30
16 21 29
11 14 20
16 21 28
17 23 31
9 11 15
16 21 29
16 21 29
13 17 24
16 21 29
9 13 18
16 21 29
11 15 20
14 19 26
12 16 23
8 10 14
11 15 20
13 17 24
11 15 20
11 14 20
12 16 22
6 8 11
6 8 11
9 12 16
6 8 11
6 7 10
11 14 19
8 11 15
5 7 10
7 9 12
4 5 7
8 10 14
3 4 5
3 4 5
1 2 2
2 3 3
1 2 2
0 1 1
0 1 1
3 3 5
1 2 2
1 1 1
2 3 4
8 10 13
1 2 3
7 9 13
5 6 8
6 9 12
13 17 23
8 10 15
8 10 14
9 12 16
10 14 19
11 14 19
11 15 20
11 14 19
8 11 14
14 18 25
7 10 13
8 11 15
9 12 17
12 16 22
15 19 26
9 12 17
14 19 25
8 11 15
9 13 18
13 17 23
15 20 28
11 15 20
12 16 23
15 20 28
10 14 19
11 15 20
12 16 22
12 16 22
12 16 22
13 18 25
12 16 23
15 20 27
13 17 23
13 17 23
14 18 25
13 17 24
10 13 18
12 17 23
9 12 17
11 14 20
14 19 26
7 9 12
18 23 32
12 16 22
13 17 24
17 22 30
12 16 22
15 20 27
10 13 18
12 17 23
9 11 15
15 20 27
12 16 21
12 15 21
7 9 13
9 11 16
8 11 15
7 10 13
9 11 16
7 10 13
5 6 8
5 7 9
5 7 9
4 6 8
4 5 6
2 3 4
4 5 7
2 2 3
3 4 5
2 3 4
0 1 1
2 3 4
6 7 10
3 3 4
6 8 11
4 6 8
7 9 13
10 13 17
8 11 15
8 11 15
10 13 17
7 9 13
10 13 17
5 7 10
11 15 20
14 19 27
13 17 23
14 18 25
10 14 19
10 14 19
13 17 24
12 16 23
11 15 22
14 19 26
11 14 19
12 16 22
7 9 12
11 15 21
13 18 24
9 12 16
14 19 26
12 16 22
15 19 26
11 14 20
13 17 24
11 15 21
11 15 20
12 16 21
15 20 27
16 21 28
13 18 25
9 12 17
12 16 23
11 15 22
14 18 25
13 18 25
11 15 21
15 19 27
12 16 22
13 17 23
15 21 29
16 21 28
14 18 25
11 14 20
11 14 20
8 11 15
11 15 21
5 7 9
10 13 18
13 17 23
8 11 15
13 17 23
10 13 18
11 15 21
7 10 13
11 15 20
6 8 11
8 11 15
4 5 7
7 9 12
9 12 16
7 9 12
4 5 7
3 4 6
4 5 6
8 10 14
5 6 8
2 2 3
1 2 3
5 6 8
2 3 4
6 8 11
7 9 12
6 8 10
7 9 12
7 9 12
6 8 11
6 8 12
9 11 15
7 9 12
6 8 11
7 9 13
6 8 11
12 16 22
10 13 18
14 19 26
13 17 24
11 15 21
18 24 32
13 17 24
17 23 31
13 18 25
10 14 18
12 15 21
14 19 26
12 16 22
15 19 27
11 15 20
15 19 26
12 16 23
16 21 28
14 18 25
16 21 28
11 15 20
15 20 28
14 18 26
14 18 25
11 15 21
13 18 24
12 16 22
10 13 18
10 13 18
14 18 25
9 12 17
13 18 24
14 18 25
10 14 19
9 12 16
16 21 29
8 11 16
11 15 20
16 21 29
17 22 30
14 18 24
12 16 22
13 17 24
12 16 22
6 8 11
14 18 25
11 15 20
9 12 16
14 18 25
9 12 16
13 18 25
10 14 19
7 10 14
8 11 15
7 9 13
7 9 12
5 6 9
9 12 16
8 11 15
10 12 17
6 8 11
1 2 3
5 7 9
3 4 6
2 3 4
3 3 4
7 9 12
7 9 12
6 8 11
4 5 6
5 7 9
3 4 6
6 8 11
6 8 12
11 14 19
7 10 13
4 6 8
12 16 21
10 13 18
11 15 21
9 12 16
8 11 15
12 16 22
11 15 20
14 19 26
15 20 27
10 13 18
14 18 25
17 23 32
13 17 24
9 11 16
17 23 31
16 21 29
10 14 19
12 15 21
12 16 21
9 13 17
10 13 18
10 14 18
16 21 29
14 19 25
12 16 22
9 12 16
16 21 29
17 23 31
15 19 26
13 18 24
15 21 28
19 25 35
14 19 26
14 19 26
14 19 26
10 13 18
10 14 19
10 13 18
11 14 20
11 15 20
13 17 24
8 11 15
11 15 21
13 17 23
10 14 19
11 15 20
14 18 24
10 13 18
11 15 21
12 16 21
13 17 23
14 19 26
10 13 18
14 18 25
15 20 28
11 15 20
9 12 17
11 14 19
8 11 15
10 13 17
4 5 7
6 8 10
10 13 18
5 6 8
6 8 11
3 4 6
4 5 8
4 5 7
3 4 6
6 8 11
5 6 9
4 6 8
11 14 19
6 8 12
6 8 11
4 5 8
8 10 14
7 9 13
9 12 17
7 9 12
8 11 16
11 14 20
10 13 18
6 7 10
11 14 20
12 16 22
13 17 23
8 10 14
11 14 20
8 11 14
13 18 25
18 23 32
14 18 25
12 16 22
16 22 30
10 13 18
13 17 24
11 14 20
12 15 21
12 16 21
18 24 32
14 18 25
15 20 28
12 16 22
13 18 25
14 20 27
6 8 11
10 13 18
14 18 25
14 19 26
14 19 26
11 15 20
14 18 25
10 13 18
16 20 28
14 18 25
13 17 23
9 13 17
12 16 22
11 15 21
12 16 23
13 17 24
10 14 19
12 16 22
11 14 20
11 14 19
11 14 19
14 18 25
8 11 15
13 17 23
9 11 15
11 15 21
11 15 20
11 14 20
9 13 17
5 7 10
8 11 15
8 10 14
10 13 18
8 10 14
9 11 16
6 8 11
11 15 20
10 13 18
8 11 15
9 12 16
3 4 5
8 11 15
3 4 5
4 6 8
5 7 10
5 7 10
5 7 9
7 10 13
11 15 20
6 8 11
9 12 17
8 10 14
4 6 8
13 18 24
10 13 18
13 16 22
13 17 23
12 16 22
8 11 14
10 13 19
15 20 28
12 16 22
13 17 23
11 14 19
13 18 24
12 15 21
11 15 20
14 19 25
14 18 25
12 16 23
11 15 20
12 16 22
13 18 25
10 14 19
7 10 13
12 16 22
12 16 22
9 13 18
9 12 16
12 17 23
15 20 27
15 20 28
16 22 30
17 22 31
17 22 29
14 18 25
12 17 23
15 20 28
10 13 18
11 15 20
18 24 32
14 18 25
9 12 16
8 11 15
16 20 28
14 19 26
15 20 28
13 17 24
16 21 29
10 14 19
14 19 26
14 19 26
17 23 31
9 11 16
10 13 18
8 11 16
15 19 26
12 16 22
11 15 20
9 12 17
9 12 16
9 12 16
10 13 18
8 10 14
9 12 16
8 11 15
10 13 18
7 9 12
9 12 16
8 10 13
12 16 22
7 9 12
6 7 10
7 9 12
4 6 8
8 10 14
11 14 19
9 11 15
10 13 18
12 16 21
10 14 18
9 12 16
9 12 17
6 8 11
11 15 20
9 12 17
8 11 15
15 20 27
10 13 18
10 13 18
12 16 21
10 14 19
13 17 23
13 17 23
8 10 14
19 26 35
11 15 21
11 14 19
11 15 21
13 17 23
9 12 16
13 16 22
12 16 22
16 21 28
10 14 19
13 18 25
10 13 18
18 23 31
12 16 22
11 15 21
5 7 10
15 20 27
11 15 21
16 21 29
10 14 19
12 16 22
15 19 26
17 22 31
15 19 27
14 18 25
14 18 25
15 20 27
12 16 22
11 15 21
16 21 29
17 22 30
16 21 28
15 21 28
9 13 17
14 19 26
16 21 29
6 9 13
9 13 17
15 20 27
12 16 22
9 12 17
14 18 25
7 9 13
6 8 11
11 15 20
9 13 18
12 16 22
11 14 19
8 11 15
8 10 14
4 6 8
5 7 9
9 12 16
8 11 14
15 19 27
7 9 12
9 12 17
12 16 21
4 5 7
8 11 15
7 9 12
9 12 16
6 8 11
19 26 35
5 7 10
10 13 18
11 14 19
10 13 17
13 17 24
12 16 23
14 18 25
9 12 17
8 10 14
12 16 22
11 15 21
12 16 23
10 14 19
9 12 17
14 18 25
9 13 18
11 15 20
10 14 19
9 12 17
15 19 27
13 18 25
11 15 21
14 18 25
12 16 22
15 21 29
8 11 15
12 16 22
12 16 22
13 17 23
11 15 21
13 17 23
10 13 18
18 24 33
17 23 31
9 13 18
16 21 29
11 14 20
11 14 20
13 18 25
8 11 15
11 15 21
11 15 20
13 17 23
13 17 24
9 12 16
6 8 12
10 13 18
9 13 17
12 16 22
14 19 26
12 16 22
17 23 32
9 12 17
13 17 23
13 18 24
12 16 21
8 10 14
11 15 20
13 17 22
13 17 24
9 12 16
10 13 18
11 15 20
10 13 19
10 14 19
14 18 25
5 6 8
10 13 18
5 6 8
13 17 23
11 14 19
9 12 16
8 11 15
12 16 22
7 9 13
9 11 15
14 18 25
4 5 7
10 14 19
10 13 17
9 12 16
9 12 16
9 12 17
13 17 24
12 15 21
9 12 17
13 17 23
9 12 17
13 17 24
10 14 19
14 19 26
11 15 21
13 17 24
11 15 20
11 14 20
12 16 22
13 18 25
13 17 23
16 22 30
11 15 20
14 18 25
10 13 17
13 18 24
10 13 18
11 15 20
15 20 27
13 17 24
14 19 25
13 17 24
10 13 18
17 22 30
14 19 26
13 17 24
13 17 23
